<svg width="53" height="53" viewBox="0 0 53 53" fill="none" xmlns="http://www.w3.org/2000/svg">
<g filter="url(#filter0_d)">
<circle cx="26.5" cy="22.5" r="22.5" fill="#1693DA"/>
</g>
<path d="M37.5975 18.5465C37.2611 18.1625 36.7564 17.9157 36.2517 17.9157H34.8499L29.4389 11.3882C29.1024 10.9769 28.5136 10.8946 28.0651 11.1963C27.6445 11.5254 27.5604 12.1013 27.8688 12.5401C27.8688 12.5676 27.8968 12.5676 27.8968 12.595L32.3547 17.9157H20.355L24.7848 12.595C25.1493 12.211 25.1212 11.6077 24.7287 11.2511C24.3362 10.8946 23.7194 10.922 23.3549 11.306C23.3269 11.3334 23.2988 11.3608 23.2708 11.3882L17.8597 17.9431H16.7383C15.785 17.9431 15 18.711 15 19.6435C15 19.7532 15 19.8629 15.028 19.9726L17.271 31.0253C17.4953 32.1772 18.5326 33 19.7382 33H33.2518C34.4574 33 35.4948 32.1772 35.7191 31.0253L37.962 19.9726C38.0741 19.4789 37.9339 18.9578 37.5975 18.5465ZM23.5792 27.5148C23.5792 28.0359 23.1306 28.4747 22.5979 28.4747C22.0652 28.4747 21.6166 28.0359 21.6166 27.5148V23.6203C21.6166 23.0992 22.0652 22.6604 22.5979 22.6604C23.1306 22.6604 23.5792 23.0992 23.5792 23.6203V27.5148ZM27.4763 27.5148C27.4763 28.0359 27.0277 28.4747 26.495 28.4747C25.9623 28.4747 25.5137 28.0359 25.5137 27.5148V23.6203C25.5137 23.0992 25.9623 22.6604 26.495 22.6604C27.0277 22.6604 27.4763 23.0992 27.4763 23.6203V27.5148ZM31.3453 27.5148C31.3453 28.0359 30.8968 28.4747 30.3641 28.4747C29.8314 28.4747 29.3828 28.0359 29.3828 27.5148V23.6203C29.3828 23.0992 29.8314 22.6604 30.3641 22.6604C30.8968 22.6604 31.3453 23.0992 31.3453 23.6203V27.5148Z" fill="white"/>
<defs>
<filter id="filter0_d" x="0" y="0" width="53" height="53" filterUnits="userSpaceOnUse" color-interpolation-filters="sRGB">
<feFlood flood-opacity="0" result="BackgroundImageFix"/>
<feColorMatrix in="SourceAlpha" type="matrix" values="0 0 0 0 0 0 0 0 0 0 0 0 0 0 0 0 0 0 127 0"/>
<feOffset dy="4"/>
<feGaussianBlur stdDeviation="2"/>
<feColorMatrix type="matrix" values="0 0 0 0 0 0 0 0 0 0 0 0 0 0 0 0 0 0 0.25 0"/>
<feBlend mode="normal" in2="BackgroundImageFix" result="effect1_dropShadow"/>
<feBlend mode="normal" in="SourceGraphic" in2="effect1_dropShadow" result="shape"/>
</filter>
</defs>
</svg>
