<svg width="209" height="78" viewBox="0 0 209 78" fill="none" xmlns="http://www.w3.org/2000/svg">
<g filter="url(#filter0_d)">
<path d="M4 15C4 6.71573 10.7157 0 19 0H59C67.2843 0 74 6.71573 74 15V29.3292C74 33.234 76.6952 36.622 80.5 37.5C76.6952 38.378 74 41.766 74 45.6708V55C74 63.2843 67.2843 70 59 70H19C10.7157 70 4 63.2843 4 55V15Z" fill="#1693DA"/>
</g>
<path d="M59.8781 24.6867C57.0453 22.5257 53.4474 21.6473 49.9059 22.2718L39.838 24.047L39.1511 20.1514C38.8031 18.1783 39.6456 16.1518 41.2736 15.0301L44.7559 12.5902L43.0093 10.0813L39.5271 12.5211C36.9348 14.3866 35.613 17.541 36.1661 20.6777L36.853 24.5734L26.8862 26.3308C19.9044 27.5619 15.2461 34.278 16.5277 41.2508C17.8094 48.2237 24.4749 52.891 31.4478 51.6093C34.9387 50.9938 38.0192 48.9378 39.9926 45.9294L44.3942 45.1532C50.0509 49.4245 58.0981 48.3186 62.3694 42.6619C66.6407 37.0052 65.5348 28.958 59.8781 24.6867ZM31.9048 40.0001L30.2858 40.2856L30.5713 41.9045C30.7229 42.7646 30.1812 43.5383 29.3211 43.6899C28.461 43.8416 27.6874 43.2999 27.5357 42.4398L27.2502 40.8208L25.6313 41.1063C24.7712 41.2579 23.9975 40.7162 23.8459 39.8561C23.6942 38.9961 24.2359 38.2224 25.096 38.0707L26.715 37.7853L26.4295 36.1663C26.2779 35.3062 26.8196 34.5325 27.6797 34.3809C28.5397 34.2292 29.3134 34.771 29.4651 35.631L29.7506 37.25L31.3695 36.9645C32.2296 36.8129 33.0033 37.3546 33.1549 38.2147C33.3066 39.0748 32.7648 39.8485 31.9048 40.0001ZM51.5311 41.5474C49.8109 41.8507 48.1446 40.6839 47.8413 38.9637C47.5379 37.2436 48.7048 35.5772 50.4249 35.2739C52.1451 34.9706 53.8114 36.1374 54.1148 37.8575C54.4181 39.5777 53.2513 41.2441 51.5311 41.5474ZM55.5794 34.6258C53.8592 34.9291 52.1928 33.7623 51.8895 32.0422C51.5862 30.322 52.753 28.6556 54.4732 28.3523C56.1934 28.049 57.8597 29.2158 58.163 30.936C58.4664 32.6561 57.2995 34.3225 55.5794 34.6258Z" fill="white"/>
<g filter="url(#filter1_d)">
<path d="M91.4 24.62H95.5V30.54C94.6733 31.1133 93.7133 31.5533 92.62 31.86C91.5267 32.1667 90.4533 32.32 89.4 32.32C87.9067 32.32 86.5667 32.0133 85.38 31.4C84.1933 30.7733 83.26 29.9067 82.58 28.8C81.9133 27.68 81.58 26.4133 81.58 25C81.58 23.5867 81.9133 22.3267 82.58 21.22C83.26 20.1 84.2 19.2333 85.4 18.62C86.6133 17.9933 87.98 17.68 89.5 17.68C90.8733 17.68 92.1 17.9133 93.18 18.38C94.2733 18.8333 95.18 19.5 95.9 20.38L92.88 23.04C92 22.0133 90.9533 21.5 89.74 21.5C88.7 21.5 87.8733 21.8133 87.26 22.44C86.6467 23.0667 86.34 23.92 86.34 25C86.34 26.0533 86.64 26.9 87.24 27.54C87.8533 28.18 88.6667 28.5 89.68 28.5C90.28 28.5 90.8533 28.3867 91.4 28.16V24.62ZM102.271 20.86C104.191 20.86 105.658 21.2933 106.671 22.16C107.684 23.0133 108.191 24.3333 108.191 26.12V32H103.991V30.56C103.471 31.6533 102.438 32.2 100.891 32.2C100.024 32.2 99.2844 32.0533 98.6711 31.76C98.0711 31.4533 97.6111 31.0467 97.2911 30.54C96.9844 30.02 96.8311 29.44 96.8311 28.8C96.8311 27.72 97.2444 26.9 98.0711 26.34C98.8978 25.78 100.151 25.5 101.831 25.5H103.651C103.504 24.6467 102.818 24.22 101.591 24.22C101.098 24.22 100.598 24.3 100.091 24.46C99.5844 24.6067 99.1511 24.8133 98.7911 25.08L97.3511 22.1C97.9778 21.7133 98.7311 21.4133 99.6111 21.2C100.504 20.9733 101.391 20.86 102.271 20.86ZM102.251 29.48C102.571 29.48 102.858 29.3933 103.111 29.22C103.364 29.0467 103.551 28.7867 103.671 28.44V27.68H102.551C101.631 27.68 101.171 27.9867 101.171 28.6C101.171 28.8533 101.264 29.0667 101.451 29.24C101.651 29.4 101.918 29.48 102.251 29.48ZM124.625 20.86C125.945 20.86 126.998 21.2667 127.785 22.08C128.585 22.8933 128.985 24.12 128.985 25.76V32H124.465V26.54C124.465 25.2867 124.058 24.66 123.245 24.66C122.818 24.66 122.471 24.82 122.205 25.14C121.951 25.46 121.825 25.9667 121.825 26.66V32H117.305V26.54C117.305 25.2867 116.898 24.66 116.085 24.66C115.658 24.66 115.311 24.82 115.045 25.14C114.791 25.46 114.665 25.9667 114.665 26.66V32H110.145V21.06H114.445V22.08C115.258 21.2667 116.291 20.86 117.545 20.86C118.278 20.86 118.938 21 119.525 21.28C120.111 21.5467 120.591 21.96 120.965 22.52C121.405 21.9867 121.938 21.58 122.565 21.3C123.191 21.0067 123.878 20.86 124.625 20.86ZM142.781 26.52C142.781 26.5867 142.761 26.94 142.721 27.58H135.121C135.281 27.9933 135.547 28.3133 135.921 28.54C136.294 28.7533 136.761 28.86 137.321 28.86C137.801 28.86 138.201 28.8 138.521 28.68C138.854 28.56 139.214 28.3533 139.601 28.06L141.961 30.44C140.894 31.6133 139.301 32.2 137.181 32.2C135.861 32.2 134.701 31.96 133.701 31.48C132.701 30.9867 131.927 30.3067 131.381 29.44C130.834 28.5733 130.561 27.6 130.561 26.52C130.561 25.4267 130.827 24.4533 131.361 23.6C131.907 22.7333 132.647 22.06 133.581 21.58C134.527 21.1 135.587 20.86 136.761 20.86C137.867 20.86 138.874 21.08 139.781 21.52C140.701 21.96 141.427 22.6067 141.961 23.46C142.507 24.3133 142.781 25.3333 142.781 26.52ZM136.801 23.94C136.334 23.94 135.947 24.0667 135.641 24.32C135.334 24.5733 135.134 24.9333 135.041 25.4H138.561C138.467 24.9467 138.267 24.5933 137.961 24.34C137.654 24.0733 137.267 23.94 136.801 23.94ZM87.36 56.32C86.2 56.32 85.0667 56.1933 83.96 55.94C82.8667 55.6733 81.9667 55.32 81.26 54.88L82.78 51.44C83.4467 51.8267 84.1933 52.14 85.02 52.38C85.8467 52.6067 86.64 52.72 87.4 52.72C88.0533 52.72 88.52 52.66 88.8 52.54C89.08 52.4067 89.22 52.2133 89.22 51.96C89.22 51.6667 89.0333 51.4467 88.66 51.3C88.3 51.1533 87.7 50.9933 86.86 50.82C85.78 50.5933 84.88 50.3533 84.16 50.1C83.44 49.8333 82.8133 49.4067 82.28 48.82C81.7467 48.22 81.48 47.4133 81.48 46.4C81.48 45.52 81.7267 44.72 82.22 44C82.7133 43.28 83.4467 42.7133 84.42 42.3C85.4067 41.8867 86.6 41.68 88 41.68C88.96 41.68 89.9 41.7867 90.82 42C91.7533 42.2 92.5733 42.5 93.28 42.9L91.86 46.32C90.4867 45.6267 89.1867 45.28 87.96 45.28C86.7467 45.28 86.14 45.5733 86.14 46.16C86.14 46.44 86.32 46.6533 86.68 46.8C87.04 46.9333 87.6333 47.08 88.46 47.24C89.5267 47.44 90.4267 47.6733 91.16 47.94C91.8933 48.1933 92.5267 48.6133 93.06 49.2C93.6067 49.7867 93.88 50.5867 93.88 51.6C93.88 52.48 93.6333 53.28 93.14 54C92.6467 54.7067 91.9067 55.2733 90.92 55.7C89.9467 56.1133 88.76 56.32 87.36 56.32ZM103.205 55.62C102.525 56.0067 101.598 56.2 100.425 56.2C98.8912 56.2 97.7112 55.8333 96.8845 55.1C96.0579 54.3533 95.6445 53.24 95.6445 51.76V48.96H94.1445V45.66H95.6445V42.6H100.165V45.66H102.405V48.96H100.165V51.72C100.165 52.0533 100.251 52.3133 100.425 52.5C100.598 52.6867 100.825 52.78 101.105 52.78C101.491 52.78 101.831 52.68 102.125 52.48L103.205 55.62ZM109.831 56.2C108.617 56.2 107.524 55.96 106.551 55.48C105.591 54.9867 104.837 54.3133 104.291 53.46C103.744 52.5933 103.471 51.6133 103.471 50.52C103.471 49.4267 103.744 48.4533 104.291 47.6C104.837 46.7333 105.591 46.06 106.551 45.58C107.524 45.1 108.617 44.86 109.831 44.86C111.057 44.86 112.151 45.1 113.111 45.58C114.084 46.06 114.837 46.7333 115.371 47.6C115.917 48.4533 116.191 49.4267 116.191 50.52C116.191 51.6133 115.917 52.5933 115.371 53.46C114.837 54.3133 114.084 54.9867 113.111 55.48C112.151 55.96 111.057 56.2 109.831 56.2ZM109.831 52.68C110.351 52.68 110.777 52.4933 111.111 52.12C111.444 51.7333 111.611 51.2 111.611 50.52C111.611 49.84 111.444 49.3133 111.111 48.94C110.777 48.5667 110.351 48.38 109.831 48.38C109.311 48.38 108.884 48.5667 108.551 48.94C108.217 49.3133 108.051 49.84 108.051 50.52C108.051 51.2 108.217 51.7333 108.551 52.12C108.884 52.4933 109.311 52.68 109.831 52.68ZM121.905 46.24C122.705 45.32 123.885 44.86 125.445 44.86V48.86C125.085 48.8067 124.752 48.78 124.445 48.78C122.899 48.78 122.125 49.5667 122.125 51.14V56H117.605V45.06H121.905V46.24ZM138.269 50.52C138.269 50.5867 138.249 50.94 138.209 51.58H130.609C130.769 51.9933 131.036 52.3133 131.409 52.54C131.782 52.7533 132.249 52.86 132.809 52.86C133.289 52.86 133.689 52.8 134.009 52.68C134.342 52.56 134.702 52.3533 135.089 52.06L137.449 54.44C136.382 55.6133 134.789 56.2 132.669 56.2C131.349 56.2 130.189 55.96 129.189 55.48C128.189 54.9867 127.416 54.3067 126.869 53.44C126.322 52.5733 126.049 51.6 126.049 50.52C126.049 49.4267 126.316 48.4533 126.849 47.6C127.396 46.7333 128.136 46.06 129.069 45.58C130.016 45.1 131.076 44.86 132.249 44.86C133.356 44.86 134.362 45.08 135.269 45.52C136.189 45.96 136.916 46.6067 137.449 47.46C137.996 48.3133 138.269 49.3333 138.269 50.52ZM132.289 47.94C131.822 47.94 131.436 48.0667 131.129 48.32C130.822 48.5733 130.622 48.9333 130.529 49.4H134.049C133.956 48.9467 133.756 48.5933 133.449 48.34C133.142 48.0733 132.756 47.94 132.289 47.94Z" fill="white"/>
</g>
<defs>
<filter id="filter0_d" x="0" y="0" width="84.5" height="78" filterUnits="userSpaceOnUse" color-interpolation-filters="sRGB">
<feFlood flood-opacity="0" result="BackgroundImageFix"/>
<feColorMatrix in="SourceAlpha" type="matrix" values="0 0 0 0 0 0 0 0 0 0 0 0 0 0 0 0 0 0 127 0"/>
<feOffset dy="4"/>
<feGaussianBlur stdDeviation="2"/>
<feColorMatrix type="matrix" values="0 0 0 0 0 0 0 0 0 0 0 0 0 0 0 0 0 0 0.25 0"/>
<feBlend mode="normal" in2="BackgroundImageFix" result="effect1_dropShadow"/>
<feBlend mode="normal" in="SourceGraphic" in2="effect1_dropShadow" result="shape"/>
</filter>
<filter id="filter1_d" x="77.26" y="17.6801" width="69.5206" height="46.64" filterUnits="userSpaceOnUse" color-interpolation-filters="sRGB">
<feFlood flood-opacity="0" result="BackgroundImageFix"/>
<feColorMatrix in="SourceAlpha" type="matrix" values="0 0 0 0 0 0 0 0 0 0 0 0 0 0 0 0 0 0 127 0"/>
<feOffset dy="4"/>
<feGaussianBlur stdDeviation="2"/>
<feColorMatrix type="matrix" values="0 0 0 0 0 0 0 0 0 0 0 0 0 0 0 0 0 0 0.25 0"/>
<feBlend mode="normal" in2="BackgroundImageFix" result="effect1_dropShadow"/>
<feBlend mode="normal" in="SourceGraphic" in2="effect1_dropShadow" result="shape"/>
</filter>
</defs>
</svg>
