<svg width="101" height="50" viewBox="0 0 101 50" fill="none" xmlns="http://www.w3.org/2000/svg">
<g filter="url(#filter0_d)">
<path d="M4 15C4 6.71572 10.7157 0 19 0H33.8403C40.4555 0 45.8182 5.36269 45.8182 11.9779V17.5213C45.8182 19.8541 47.4283 21.8781 49.7013 22.4026V22.4026V22.4026C47.4283 22.9271 45.8182 24.9511 45.8182 27.2839V31.5039C45.8182 37.2003 41.2003 41.8182 35.5039 41.8182H19C10.7157 41.8182 4 35.1025 4 26.8182V15Z" fill="#1693DA"/>
</g>
<path d="M37.3817 14.7479C35.6894 13.4569 33.54 12.9322 31.4243 13.3052L25.4097 14.3658L24.9993 12.0385C24.7915 10.8597 25.2948 9.6491 26.2674 8.97899L28.3477 7.52144L27.3043 6.02257L25.224 7.48011C23.6753 8.59461 22.8857 10.479 23.2161 12.3529L23.6265 14.6802L17.6723 15.7301C13.5013 16.4655 10.7184 20.4777 11.4841 24.6434C12.2498 28.809 16.2318 31.5972 20.3974 30.8315C22.4829 30.4638 24.3231 29.2356 25.5021 27.4383L28.1316 26.9747C31.511 29.5263 36.3184 28.8657 38.8701 25.4863C41.4218 22.107 40.7611 17.2996 37.3817 14.7479ZM20.6704 23.8962L19.7032 24.0667L19.8738 25.0339C19.9644 25.5477 19.6407 26.0099 19.1269 26.1005C18.6131 26.1911 18.1509 25.8674 18.0603 25.3536L17.8898 24.3865L16.9226 24.557C16.4088 24.6476 15.9466 24.324 15.856 23.8102C15.7654 23.2963 16.089 22.8341 16.6028 22.7435L17.57 22.573L17.3995 21.6058C17.3089 21.092 17.6325 20.6298 18.1463 20.5392C18.6601 20.4486 19.1223 20.7723 19.2129 21.2861L19.3835 22.2532L20.3506 22.0827C20.8645 21.9921 21.3266 22.3157 21.4172 22.8296C21.5078 23.3434 21.1842 23.8056 20.6704 23.8962ZM32.3952 24.8205C31.3676 25.0017 30.3721 24.3046 30.1909 23.277C30.0097 22.2494 30.7068 21.2539 31.7344 21.0727C32.762 20.8915 33.7575 21.5886 33.9387 22.6162C34.1199 23.6438 33.4228 24.6393 32.3952 24.8205ZM34.8137 20.6856C33.786 20.8668 32.7905 20.1697 32.6093 19.1421C32.4282 18.1144 33.1252 17.1189 34.1528 16.9377C35.1805 16.7566 36.176 17.4536 36.3572 18.4812C36.5384 19.5089 35.8413 20.5044 34.8137 20.6856Z" fill="white"/>
<g filter="url(#filter1_d)">
<path d="M57.8 12.465H60.875V16.905C60.255 17.335 59.535 17.665 58.715 17.895C57.895 18.125 57.09 18.24 56.3 18.24C55.18 18.24 54.175 18.01 53.285 17.55C52.395 17.08 51.695 16.43 51.185 15.6C50.685 14.76 50.435 13.81 50.435 12.75C50.435 11.69 50.685 10.745 51.185 9.915C51.695 9.075 52.4 8.425 53.3 7.965C54.21 7.495 55.235 7.26 56.375 7.26C57.405 7.26 58.325 7.435 59.135 7.785C59.955 8.125 60.635 8.625 61.175 9.285L58.91 11.28C58.25 10.51 57.465 10.125 56.555 10.125C55.775 10.125 55.155 10.36 54.695 10.83C54.235 11.3 54.005 11.94 54.005 12.75C54.005 13.54 54.23 14.175 54.68 14.655C55.14 15.135 55.75 15.375 56.51 15.375C56.96 15.375 57.39 15.29 57.8 15.12V12.465ZM65.9533 9.645C67.3933 9.645 68.4933 9.97 69.2533 10.62C70.0133 11.26 70.3933 12.25 70.3933 13.59V18H67.2433V16.92C66.8533 17.74 66.0783 18.15 64.9183 18.15C64.2683 18.15 63.7133 18.04 63.2533 17.82C62.8033 17.59 62.4583 17.285 62.2183 16.905C61.9883 16.515 61.8733 16.08 61.8733 15.6C61.8733 14.79 62.1833 14.175 62.8033 13.755C63.4233 13.335 64.3633 13.125 65.6233 13.125H66.9883C66.8783 12.485 66.3633 12.165 65.4433 12.165C65.0733 12.165 64.6983 12.225 64.3183 12.345C63.9383 12.455 63.6133 12.61 63.3433 12.81L62.2633 10.575C62.7333 10.285 63.2983 10.06 63.9583 9.9C64.6283 9.73 65.2933 9.645 65.9533 9.645ZM65.9383 16.11C66.1783 16.11 66.3933 16.045 66.5833 15.915C66.7733 15.785 66.9133 15.59 67.0033 15.33V14.76H66.1633C65.4733 14.76 65.1283 14.99 65.1283 15.45C65.1283 15.64 65.1983 15.8 65.3383 15.93C65.4883 16.05 65.6883 16.11 65.9383 16.11ZM82.7184 9.645C83.7084 9.645 84.4984 9.95 85.0884 10.56C85.6884 11.17 85.9884 12.09 85.9884 13.32V18H82.5984V13.905C82.5984 12.965 82.2934 12.495 81.6834 12.495C81.3634 12.495 81.1034 12.615 80.9034 12.855C80.7134 13.095 80.6184 13.475 80.6184 13.995V18H77.2284V13.905C77.2284 12.965 76.9234 12.495 76.3134 12.495C75.9934 12.495 75.7334 12.615 75.5334 12.855C75.3434 13.095 75.2484 13.475 75.2484 13.995V18H71.8584V9.795H75.0834V10.56C75.6934 9.95 76.4684 9.645 77.4084 9.645C77.9584 9.645 78.4534 9.75 78.8934 9.96C79.3334 10.16 79.6934 10.47 79.9734 10.89C80.3034 10.49 80.7034 10.185 81.1734 9.975C81.6434 9.755 82.1584 9.645 82.7184 9.645ZM96.3355 13.89C96.3355 13.94 96.3205 14.205 96.2905 14.685H90.5905C90.7105 14.995 90.9105 15.235 91.1905 15.405C91.4705 15.565 91.8205 15.645 92.2405 15.645C92.6005 15.645 92.9005 15.6 93.1405 15.51C93.3905 15.42 93.6605 15.265 93.9505 15.045L95.7205 16.83C94.9205 17.71 93.7255 18.15 92.1355 18.15C91.1455 18.15 90.2755 17.97 89.5255 17.61C88.7755 17.24 88.1955 16.73 87.7855 16.08C87.3755 15.43 87.1705 14.7 87.1705 13.89C87.1705 13.07 87.3705 12.34 87.7705 11.7C88.1805 11.05 88.7355 10.545 89.4355 10.185C90.1455 9.825 90.9405 9.645 91.8205 9.645C92.6505 9.645 93.4055 9.81 94.0855 10.14C94.7755 10.47 95.3205 10.955 95.7205 11.595C96.1305 12.235 96.3355 13 96.3355 13.89ZM91.8505 11.955C91.5005 11.955 91.2105 12.05 90.9805 12.24C90.7505 12.43 90.6005 12.7 90.5305 13.05H93.1705C93.1005 12.71 92.9505 12.445 92.7205 12.255C92.4905 12.055 92.2005 11.955 91.8505 11.955ZM54.77 36.24C53.9 36.24 53.05 36.145 52.22 35.955C51.4 35.755 50.725 35.49 50.195 35.16L51.335 32.58C51.835 32.87 52.395 33.105 53.015 33.285C53.635 33.455 54.23 33.54 54.8 33.54C55.29 33.54 55.64 33.495 55.85 33.405C56.06 33.305 56.165 33.16 56.165 32.97C56.165 32.75 56.025 32.585 55.745 32.475C55.475 32.365 55.025 32.245 54.395 32.115C53.585 31.945 52.91 31.765 52.37 31.575C51.83 31.375 51.36 31.055 50.96 30.615C50.56 30.165 50.36 29.56 50.36 28.8C50.36 28.14 50.545 27.54 50.915 27C51.285 26.46 51.835 26.035 52.565 25.725C53.305 25.415 54.2 25.26 55.25 25.26C55.97 25.26 56.675 25.34 57.365 25.5C58.065 25.65 58.68 25.875 59.21 26.175L58.145 28.74C57.115 28.22 56.14 27.96 55.22 27.96C54.31 27.96 53.855 28.18 53.855 28.62C53.855 28.83 53.99 28.99 54.26 29.1C54.53 29.2 54.975 29.31 55.595 29.43C56.395 29.58 57.07 29.755 57.62 29.955C58.17 30.145 58.645 30.46 59.045 30.9C59.455 31.34 59.66 31.94 59.66 32.7C59.66 33.36 59.475 33.96 59.105 34.5C58.735 35.03 58.18 35.455 57.44 35.775C56.71 36.085 55.82 36.24 54.77 36.24ZM66.6534 35.715C66.1434 36.005 65.4484 36.15 64.5684 36.15C63.4184 36.15 62.5334 35.875 61.9134 35.325C61.2934 34.765 60.9834 33.93 60.9834 32.82V30.72H59.8584V28.245H60.9834V25.95H64.3734V28.245H66.0534V30.72H64.3734V32.79C64.3734 33.04 64.4384 33.235 64.5684 33.375C64.6984 33.515 64.8684 33.585 65.0784 33.585C65.3684 33.585 65.6234 33.51 65.8434 33.36L66.6534 35.715ZM71.6231 36.15C70.7131 36.15 69.8931 35.97 69.1631 35.61C68.4431 35.24 67.8781 34.735 67.4681 34.095C67.0581 33.445 66.8531 32.71 66.8531 31.89C66.8531 31.07 67.0581 30.34 67.4681 29.7C67.8781 29.05 68.4431 28.545 69.1631 28.185C69.8931 27.825 70.7131 27.645 71.6231 27.645C72.5431 27.645 73.3631 27.825 74.0831 28.185C74.8131 28.545 75.3781 29.05 75.7781 29.7C76.1881 30.34 76.3931 31.07 76.3931 31.89C76.3931 32.71 76.1881 33.445 75.7781 34.095C75.3781 34.735 74.8131 35.24 74.0831 35.61C73.3631 35.97 72.5431 36.15 71.6231 36.15ZM71.6231 33.51C72.0131 33.51 72.3331 33.37 72.5831 33.09C72.8331 32.8 72.9581 32.4 72.9581 31.89C72.9581 31.38 72.8331 30.985 72.5831 30.705C72.3331 30.425 72.0131 30.285 71.6231 30.285C71.2331 30.285 70.9131 30.425 70.6631 30.705C70.4131 30.985 70.2881 31.38 70.2881 31.89C70.2881 32.4 70.4131 32.8 70.6631 33.09C70.9131 33.37 71.2331 33.51 71.6231 33.51ZM80.6791 28.68C81.2791 27.99 82.1641 27.645 83.3341 27.645V30.645C83.0641 30.605 82.8141 30.585 82.5841 30.585C81.4241 30.585 80.8441 31.175 80.8441 32.355V36H77.4541V27.795H80.6791V28.68ZM92.9517 31.89C92.9517 31.94 92.9367 32.205 92.9067 32.685H87.2067C87.3267 32.995 87.5267 33.235 87.8067 33.405C88.0867 33.565 88.4367 33.645 88.8567 33.645C89.2167 33.645 89.5167 33.6 89.7567 33.51C90.0067 33.42 90.2767 33.265 90.5667 33.045L92.3367 34.83C91.5367 35.71 90.3417 36.15 88.7517 36.15C87.7617 36.15 86.8917 35.97 86.1417 35.61C85.3917 35.24 84.8117 34.73 84.4017 34.08C83.9917 33.43 83.7867 32.7 83.7867 31.89C83.7867 31.07 83.9867 30.34 84.3867 29.7C84.7967 29.05 85.3517 28.545 86.0517 28.185C86.7617 27.825 87.5567 27.645 88.4367 27.645C89.2667 27.645 90.0217 27.81 90.7017 28.14C91.3917 28.47 91.9367 28.955 92.3367 29.595C92.7467 30.235 92.9517 31 92.9517 31.89ZM88.4667 29.955C88.1167 29.955 87.8267 30.05 87.5967 30.24C87.3667 30.43 87.2167 30.7 87.1467 31.05H89.7867C89.7167 30.71 89.5667 30.445 89.3367 30.255C89.1067 30.055 88.8167 29.955 88.4667 29.955Z" fill="white"/>
</g>
<defs>
<filter id="filter0_d" x="0" y="0" width="100" height="49.8182" filterUnits="userSpaceOnUse" color-interpolation-filters="sRGB">
<feFlood flood-opacity="0" result="BackgroundImageFix"/>
<feColorMatrix in="SourceAlpha" type="matrix" values="0 0 0 0 0 0 0 0 0 0 0 0 0 0 0 0 0 0 127 0"/>
<feOffset dy="4"/>
<feGaussianBlur stdDeviation="2"/>
<feColorMatrix type="matrix" values="0 0 0 0 0 0 0 0 0 0 0 0 0 0 0 0 0 0 0.25 0"/>
<feBlend mode="normal" in2="BackgroundImageFix" result="effect1_dropShadow"/>
<feBlend mode="normal" in="SourceGraphic" in2="effect1_dropShadow" result="shape"/>
</filter>
<filter id="filter1_d" x="46.1951" y="7.26001" width="54.1405" height="36.98" filterUnits="userSpaceOnUse" color-interpolation-filters="sRGB">
<feFlood flood-opacity="0" result="BackgroundImageFix"/>
<feColorMatrix in="SourceAlpha" type="matrix" values="0 0 0 0 0 0 0 0 0 0 0 0 0 0 0 0 0 0 127 0"/>
<feOffset dy="4"/>
<feGaussianBlur stdDeviation="2"/>
<feColorMatrix type="matrix" values="0 0 0 0 0 0 0 0 0 0 0 0 0 0 0 0 0 0 0.25 0"/>
<feBlend mode="normal" in2="BackgroundImageFix" result="effect1_dropShadow"/>
<feBlend mode="normal" in="SourceGraphic" in2="effect1_dropShadow" result="shape"/>
</filter>
</defs>
</svg>
