<svg width="53" height="53" viewBox="0 0 53 53" fill="none" xmlns="http://www.w3.org/2000/svg">
<g filter="url(#filter0_d)">
<rect x="4" width="45" height="45" rx="15" fill="#1693DA"/>
</g>
<path d="M27.2806 25.7356C27.2342 25.1635 26.9424 24.7767 26.539 24.7767C26.1135 24.7767 25.6733 25.2004 25.6733 25.9095C25.6733 26.6339 26.1007 27.1205 26.4998 27.1205C26.8522 27.1205 27.2274 26.6986 27.2806 26.0549V25.7356H27.2806Z" fill="white"/>
<path d="M15 16.9216V33.3257C15 33.6981 15.3017 34 15.6738 34H37.3262C37.6983 34 38 33.6981 38 33.3257V16.9216H15ZM28.6285 26.8752C28.6278 27.021 28.6845 27.1634 28.78 27.2595C28.816 27.2957 28.8897 27.3565 28.9784 27.3565C29.8264 27.3565 30.1313 26.6137 30.1343 26.6062C30.4843 25.7254 30.5502 25.031 30.354 24.2867C30.0408 23.2581 29.3451 22.416 28.3939 21.9146C27.4397 21.4117 26.3477 21.3152 25.319 21.643C24.346 21.9529 23.5357 22.6226 23.0375 23.5285C22.5392 24.4345 22.4078 25.4774 22.6674 26.4652C22.8929 27.3232 23.3791 28.0629 24.0736 28.6044C24.7411 29.1249 25.5714 29.4251 26.4124 29.4503H26.5C26.8721 29.4503 27.1738 29.7522 27.1738 30.1247C27.1738 30.4971 26.8721 30.799 26.5 30.799H26.4025C26.3963 30.799 26.3901 30.7989 26.3839 30.7988C25.2548 30.7675 24.1401 30.366 23.2453 29.6683C22.3158 28.9436 21.6652 27.9546 21.3639 26.8082C21.0161 25.4844 21.1911 24.0887 21.8568 22.8782C22.5223 21.6682 23.6066 20.7731 24.9101 20.3578C26.2856 19.9196 27.7457 20.0487 29.0218 20.7213C30.2981 21.394 31.2305 22.5255 31.6473 23.9075C31.6494 23.9144 31.6514 23.9214 31.6533 23.9284C31.9297 24.9652 31.8475 25.9447 31.3865 27.1046C31.1503 27.6991 30.3773 28.7053 28.9783 28.7053C28.5514 28.7053 28.1417 28.5297 27.8247 28.2109C27.7742 28.1601 27.7273 28.1061 27.6833 28.0499C27.3466 28.3156 26.941 28.4692 26.5001 28.4692C25.9107 28.4692 25.3387 28.184 24.9306 27.6868C24.5406 27.2117 24.3259 26.5805 24.3259 25.9094C24.3259 25.2339 24.5549 24.6081 24.9708 24.1472C25.3833 23.6901 25.9549 23.428 26.5392 23.428C26.8211 23.428 27.0905 23.4869 27.3377 23.5983C27.4419 23.3606 27.6788 23.1944 27.9547 23.1944C28.3268 23.1944 28.6285 23.4964 28.6285 23.8688V26.8752Z" fill="white"/>
<path d="M37.3262 11H15.6738C15.3017 11 15 11.3019 15 11.6744V15.5729H38V11.6744C38 11.3019 37.6983 11 37.3262 11ZM32.4642 13.9608C32.0864 13.9608 31.8067 13.6518 31.7904 13.2865C31.7741 12.9223 32.1117 12.6121 32.4642 12.6121C32.8419 12.6121 33.1217 12.9211 33.138 13.2865C33.1543 13.6506 32.8166 13.9608 32.4642 13.9608ZM35.0007 13.9608C34.6229 13.9608 34.3432 13.6518 34.3268 13.2865C34.3105 12.9223 34.6482 12.6121 35.0007 12.6121C35.3784 12.6121 35.6581 12.9211 35.6745 13.2865C35.6908 13.6506 35.3531 13.9608 35.0007 13.9608Z" fill="white"/>
<defs>
<filter id="filter0_d" x="0" y="0" width="53" height="53" filterUnits="userSpaceOnUse" color-interpolation-filters="sRGB">
<feFlood flood-opacity="0" result="BackgroundImageFix"/>
<feColorMatrix in="SourceAlpha" type="matrix" values="0 0 0 0 0 0 0 0 0 0 0 0 0 0 0 0 0 0 127 0"/>
<feOffset dy="4"/>
<feGaussianBlur stdDeviation="2"/>
<feColorMatrix type="matrix" values="0 0 0 0 0 0 0 0 0 0 0 0 0 0 0 0 0 0 0.25 0"/>
<feBlend mode="normal" in2="BackgroundImageFix" result="effect1_dropShadow"/>
<feBlend mode="normal" in="SourceGraphic" in2="effect1_dropShadow" result="shape"/>
</filter>
</defs>
</svg>
